<?xml version="1.0" standalone="no"?>
<!DOCTYPE svg PUBLIC "-//W3C//DTD SVG 20010904//EN"
 "http://www.w3.org/TR/2001/REC-SVG-20010904/DTD/svg10.dtd">
<svg version="1.0" xmlns="http://www.w3.org/2000/svg"
 width="500.000000pt" height="500.000000pt" viewBox="0 0 500.000000 500.000000"
 preserveAspectRatio="xMidYMid meet">
<metadata>
Created by potrace 1.14, written by Peter Selinger 2001-2017
</metadata>
<g transform="translate(0.000000,500.000000) scale(0.100000,-0.100000)"
fill="#000000" stroke="none">
<path d="M2335 4993 c-746 -64 -1393 -417 -1830 -998 -303 -402 -466 -862
-500 -1411 -16 -261 45 -638 152 -934 303 -837 1046 -1460 1923 -1609 199 -34
400 -45 568 -32 373 29 642 101 957 255 258 127 469 281 675 492 199 205 326
380 444 614 202 398 300 870 267 1287 -52 665 -314 1215 -799 1676 -218 208
-539 403 -847 515 -305 111 -717 170 -1010 145z m-239 -453 c173 -42 411 -112
443 -129 59 -32 64 -88 21 -217 -103 -300 -321 -1195 -324 -1328 -1 -50 2 -59
19 -66 37 -14 97 16 155 77 106 112 429 527 765 983 275 373 448 603 482 641
46 51 92 72 137 63 93 -17 555 -462 572 -549 9 -48 -1 -69 -59 -128 -117 -118
-252 -264 -628 -677 -218 -239 -458 -500 -534 -580 -151 -160 -175 -191 -175
-234 0 -47 259 -503 456 -803 149 -227 248 -357 361 -475 86 -88 93 -99 93
-136 0 -36 -6 -45 -62 -98 -123 -113 -383 -295 -524 -367 -112 -57 -176 -46
-272 46 -213 205 -462 673 -685 1289 -55 151 -62 163 -103 183 -69 33 -150 11
-177 -47 -32 -69 -148 -820 -212 -1373 -13 -108 -49 -142 -144 -132 -129 14
-559 138 -622 179 -63 43 -71 73 -65 243 28 770 411 2792 660 3488 78 219 100
227 422 147z m2227 -2747 c126 -34 230 -133 258 -246 18 -72 6 -194 -24 -261
-34 -73 -97 -140 -166 -173 -51 -26 -66 -28 -167 -28 -103 0 -114 2 -169 30
-111 57 -168 170 -167 330 1 127 37 208 134 302 76 74 153 86 301 46z"/>
</g>
</svg>
