<?xml version="1.0" standalone="no"?>
<!DOCTYPE svg PUBLIC "-//W3C//DTD SVG 20010904//EN"
 "http://www.w3.org/TR/2001/REC-SVG-20010904/DTD/svg10.dtd">
<svg version="1.0" xmlns="http://www.w3.org/2000/svg"
 width="700.000000pt" height="700.000000pt" viewBox="0 0 700.000000 700.000000"
 preserveAspectRatio="xMidYMid meet">
<metadata>
Created by potrace 1.14, written by Peter Selinger 2001-2017
</metadata>
<g transform="translate(0.000000,700.000000) scale(0.100000,-0.100000)"
fill="#000000" stroke="none">
<path d="M3250 6779 c-1393 -113 -2565 -1091 -2915 -2434 -126 -483 -143 -975
-50 -1453 88 -452 278 -895 548 -1276 305 -430 754 -811 1242 -1051 267 -132
454 -198 725 -259 436 -96 923 -100 1365 -11 811 163 1573 678 2051 1385 602
891 734 1961 363 2958 -64 174 -196 443 -288 591 -306 489 -779 924 -1300
1195 -529 274 -1155 402 -1741 355z m639 -234 c350 -48 636 -137 966 -300 347
-171 588 -349 862 -638 285 -300 557 -742 688 -1117 19 -56 35 -103 35 -105 0
-2 -211 207 -470 465 -258 257 -496 487 -527 511 -32 24 -110 89 -173 144
-405 354 -884 572 -1404 640 -359 47 -768 20 -1081 -70 -230 -66 -495 -183
-685 -300 -420 -261 -758 -632 -979 -1075 -143 -288 -223 -551 -267 -875 -24
-174 -24 -544 -1 -698 75 -491 259 -919 568 -1317 87 -112 204 -235 756 -791
227 -228 413 -418 413 -422 0 -11 -186 58 -317 116 -236 106 -499 265 -683
413 -116 93 -335 309 -431 425 -350 422 -592 939 -678 1449 -88 519 -27 1118
164 1607 162 412 398 771 710 1077 528 519 1171 811 1935 880 97 9 490 -4 599
-19z m-1139 -2291 c0 -437 4 -684 10 -682 12 4 588 567 1050 1025 l346 343
459 0 460 -1 -80 -72 c-88 -80 -1172 -1105 -1305 -1234 l-85 -83 713 -712
c391 -392 712 -716 712 -721 0 -4 -202 -7 -449 -7 l-448 0 -35 27 c-19 16
-254 251 -522 523 -269 272 -492 495 -496 495 -5 0 -81 -69 -170 -154 l-162
-154 7 -359 8 -358 -358 0 -358 0 6 803 c4 441 7 1073 7 1405 l0 602 345 0
345 0 0 -686z"/>
</g>
</svg>
